<?xml version="1.0" encoding="UTF-8"?>
<svg width="86px" height="122px" viewBox="0 0 86 122" version="1.1" xmlns="http://www.w3.org/2000/svg" xmlns:xlink="http://www.w3.org/1999/xlink">
    <!-- Generator: Sketch 56.2 (81672) - https://sketch.com -->
    <title>Citizen</title>
    <desc>Created with Sketch.</desc>
    <g id="Page-1" stroke="none" stroke-width="1" fill="none" fill-rule="evenodd">
        <g id="netguru-cartoon-characters" transform="translate(-599.000000, -331.000000)">
            <g id="Citizen" transform="translate(599.000000, 331.000000)">
                <g id="shadow" transform="translate(0.000000, 112.000000)">
                    <ellipse id="Oval-Copy" fill="#F7F9FA" cx="43" cy="5" rx="43" ry="5"></ellipse>
                    <ellipse id="Oval" fill="#E9EAEC" cx="42.5" cy="5" rx="17.5" ry="2"></ellipse>
                </g>
                <g id="girl" transform="translate(14.000000, 0.000000)">
                    <path d="M44.7935,11.5764 C44.7935,10.7634 44.6575,9.9734 44.4165,9.2104 L43.0935,6.6394 C40.4755,3.0284 35.0905,0.5434 28.8545,0.5434 C22.5345,0.5434 17.0895,3.0964 14.5125,6.7884 C13.9755,7.5574 13.5545,8.3724 13.2865,9.2294 C13.0495,9.9864 12.9165,10.7704 12.9165,11.5764 C12.9165,11.9124 12.9465,12.2434 12.9895,12.5714 C17.6215,10.8364 23.0495,9.8374 28.8545,9.8374 C34.6595,9.8374 40.0875,10.8364 44.7205,12.5714 C44.7625,12.2434 44.7935,11.9124 44.7935,11.5764 Z" id="Fill-151" fill="#616161"></path>
                    <path d="M42.9924,15.399 C43.2174,15.48 43.4354,15.568 43.6544,15.654 C43.8694,15.282 44.0504,14.899 44.2054,14.509 C44.0444,14.874 43.8624,15.234 43.6404,15.582 C43.4284,15.517 43.2074,15.461 42.9924,15.399" id="Fill-152" fill="#2B3D4E"></path>
                    <path d="M14.0064,15.4889 C13.8234,15.1939 13.6704,14.8909 13.5314,14.5839 C13.6634,14.9069 13.8174,15.2219 13.9904,15.5319 C14.1424,15.4759 14.2994,15.4229 14.4554,15.3679 C14.3074,15.4089 14.1524,15.4469 14.0064,15.4889" id="Fill-153" fill="#2B3D4E"></path>
                    <path d="M43.6548,15.6543 C43.4348,15.5683 43.2168,15.4803 42.9928,15.3993 C38.8558,14.2103 34.1108,13.6213 28.8328,13.6213 C23.0548,13.6213 18.3338,14.2923 14.4558,15.3683 C14.2998,15.4223 14.1428,15.4763 13.9898,15.5323 C5.5368,18.6413 2.6818,24.1543 1.7088,27.0903 C0.7868,29.8713 0.2798,32.8363 0.2798,35.9163 L0.2798,54.3153 C0.2798,66.0423 4.1768,65.9993 10.1218,63.3083 C7.6878,59.5403 6.2598,55.0713 6.2598,50.4533 C6.2598,50.3773 6.2648,50.3033 6.2658,50.2283 L6.2598,50.2283 L6.2598,49.4483 C4.2378,49.0143 2.6478,47.3163 2.4818,45.1503 C2.2808,42.5113 4.2558,40.2083 6.8948,40.0063 C6.9708,40.0013 7.0438,40.0143 7.1198,40.0123 C8.5718,35.4653 11.7628,31.1023 15.9188,32.4563 C15.9518,32.4673 29.5908,36.1983 36.1668,32.4983 C40.7798,29.9033 39.0458,19.4673 39.0458,19.4673 L43.4088,32.4153 L50.1918,32.4983 L50.1918,40.1203 C52.2138,40.5543 53.8038,42.2523 53.9698,44.4193 C54.1548,46.8383 52.5008,48.9553 50.1918,49.4483 L50.1918,50.2283 L50.1858,50.2283 C50.1868,50.3033 50.1918,50.3773 50.1918,50.4533 C50.1918,54.7973 48.9258,59.0083 46.7498,62.6293 C52.8748,65.6633 56.7798,66.3773 56.7798,54.3153 L56.7798,35.9163 C56.7798,25.5333 51.9708,18.9093 43.6548,15.6543" id="Fill-154" fill="#616161"></path>
                    <path d="M53.9695,44.4191 C53.8035,42.2521 52.2135,40.5541 50.1915,40.1201 L50.1915,49.4491 C52.5005,48.9551 54.1545,46.8391 53.9695,44.4191" id="Fill-155" fill="#C39869"></path>
                    <path d="M7.1197,40.0122 C7.0437,40.0142 6.9707,40.0012 6.8947,40.0072 C4.2557,40.2082 2.2807,42.5112 2.4827,45.1502 C2.6477,47.3172 4.2377,49.0142 6.2597,49.4482 L6.2597,45.0212 C6.2597,43.5332 6.5617,41.7592 7.1197,40.0122" id="Fill-156" fill="#C39869"></path>
                    <path d="M28.9998,58.1234 C27.3108,58.1234 25.2778,57.0874 25.5278,56.3134 C26.0488,54.7014 26.8328,56.6234 28.8158,56.6234 C30.7498,56.6234 31.5788,54.7014 32.0998,56.3134 C32.3508,57.0874 30.6888,58.1234 28.9998,58.1234 M34.3998,64.7594 C33.4808,67.0564 31.2888,68.5404 28.8148,68.5404 C26.3388,68.5404 24.1468,67.0564 23.2288,64.7594 C23.0348,64.2754 23.1898,63.7484 23.6228,63.4184 C24.8358,62.4944 32.7898,62.4954 34.0048,63.4174 C34.4388,63.7474 34.5938,64.2744 34.3998,64.7594 M14.8148,48.7064 C14.8148,47.4454 15.8368,46.4244 17.0968,46.4244 C18.3568,46.4244 19.3778,47.4454 19.3778,48.7064 C19.3778,49.9664 18.3568,48.7064 17.0968,48.7064 C15.8368,48.7064 14.8148,49.9664 14.8148,48.7064 M17.0968,51.2394 C19.2478,51.2394 20.9928,51.6994 20.9928,52.2664 C20.9928,52.8324 19.2478,53.2924 17.0968,53.2924 C14.9448,53.2924 13.2008,52.8324 13.2008,52.2664 C13.2008,51.6994 14.9448,51.2394 17.0968,51.2394 M11.2938,41.3504 C11.4398,40.6764 12.1038,40.2464 12.7788,40.3924 C16.1228,41.1134 19.6548,41.3084 21.3648,40.8664 C22.0318,40.6924 22.7148,41.0954 22.8878,41.7634 C23.0608,42.4324 22.6578,43.1144 21.9898,43.2854 C21.1218,43.5104 20.0578,43.6024 18.9188,43.6024 C16.6858,43.6024 14.1628,43.2474 12.2518,42.8354 C11.5768,42.6904 11.1478,42.0254 11.2938,41.3504 M36.9978,48.7064 C36.9978,47.4454 38.0188,46.4244 39.2798,46.4244 C40.5398,46.4244 41.5608,47.4454 41.5608,48.7064 C41.5608,49.9664 40.5398,48.7064 39.2798,48.7064 C38.0188,48.7064 36.9978,49.9664 36.9978,48.7064 M39.2798,51.1844 C41.4308,51.1844 43.1748,51.6444 43.1748,52.2114 C43.1748,52.7774 41.4308,53.2374 39.2798,53.2374 C37.1278,53.2374 35.3838,52.7774 35.3838,52.2114 C35.3838,51.6444 37.1278,51.1844 39.2798,51.1844 M33.4878,41.7634 C33.6608,41.0954 34.3458,40.6934 35.0108,40.8664 C36.7218,41.3074 40.2538,41.1144 43.5968,40.3924 C44.2738,40.2434 44.9368,40.6754 45.0818,41.3504 C45.2278,42.0254 44.7988,42.6904 44.1238,42.8354 C42.2128,43.2474 39.6888,43.6024 37.4568,43.6024 C36.3168,43.6024 35.2538,43.5104 34.3858,43.2854 C33.7178,43.1144 33.3148,42.4324 33.4878,41.7634 M50.1858,50.2284 L50.1918,50.2284 L50.1918,49.4484 L50.1918,40.1204 L50.1918,32.4984 L43.4088,32.4154 L39.0458,19.4674 C39.0458,19.4674 40.7798,29.9034 36.1668,32.4984 C29.5908,36.1984 15.9518,32.4674 15.9188,32.4564 C11.7628,31.1024 8.5718,35.4644 7.1198,40.0124 C6.5618,41.7594 6.2598,43.5334 6.2598,45.0214 L6.2598,49.4484 L6.2598,50.2284 L6.2658,50.2284 C6.2648,50.3034 6.2598,50.3774 6.2598,50.4534 C6.2598,55.0714 7.6878,59.5404 10.1218,63.3084 C13.0528,67.8434 17.4438,71.3574 22.5728,72.8794 C24.3768,73.4144 26.2708,73.7064 28.2258,73.7064 C30.4838,73.7064 32.6618,73.3204 34.7118,72.6154 C39.7328,70.8874 43.9798,67.2384 46.7498,62.6294 C48.9258,59.0084 50.1918,54.7974 50.1918,50.4534 C50.1918,50.3774 50.1868,50.3034 50.1858,50.2284" id="Fill-157" fill="#F3CC9B"></path>
                    <path d="M12.2519,42.8357 C14.1629,43.2477 16.6859,43.6027 18.9189,43.6027 C20.0579,43.6027 21.1219,43.5107 21.9899,43.2857 C22.6579,43.1137 23.0609,42.4327 22.8879,41.7637 C22.7149,41.0957 22.0319,40.6917 21.3649,40.8657 C19.6549,41.3087 16.1229,41.1127 12.7789,40.3927 C12.1039,40.2467 11.4399,40.6767 11.2939,41.3507 C11.1479,42.0247 11.5769,42.6897 12.2519,42.8357" id="Fill-158" fill="#9E9E9E"></path>
                    <path d="M34.3856,43.2858 C35.2536,43.5108 36.3176,43.6018 37.4566,43.6018 C39.6896,43.6018 42.2126,43.2478 44.1236,42.8358 C44.7986,42.6898 45.2276,42.0248 45.0816,41.3498 C44.9366,40.6758 44.2746,40.2428 43.5966,40.3918 C40.2536,41.1138 36.7216,41.3068 35.0106,40.8658 C34.3456,40.6928 33.6606,41.0958 33.4886,41.7638 C33.3156,42.4318 33.7176,43.1138 34.3856,43.2858" id="Fill-159" fill="#9E9E9E"></path>
                    <path d="M35.3836,52.2109 C35.3836,52.7779 37.1276,53.2369 39.2796,53.2369 C41.4306,53.2369 43.1756,52.7779 43.1756,52.2109 C43.1756,51.6439 41.4306,51.1849 39.2796,51.1849 C37.1276,51.1849 35.3836,51.6439 35.3836,52.2109" id="Fill-160" fill="#F1AD89"></path>
                    <path d="M13.2007,52.266 C13.2007,52.833 14.9447,53.292 17.0967,53.292 C19.2477,53.292 20.9927,52.833 20.9927,52.266 C20.9927,51.699 19.2477,51.24 17.0967,51.24 C14.9447,51.24 13.2007,51.699 13.2007,52.266" id="Fill-161" fill="#F1AD89"></path>
                    <path d="M17.0965,48.7059 C18.3565,48.7059 19.3785,49.9659 19.3785,48.7059 C19.3785,47.4459 18.3565,46.4239 17.0965,46.4239 C15.8365,46.4239 14.8145,47.4459 14.8145,48.7059 C14.8145,49.9659 15.8365,48.7059 17.0965,48.7059" id="Fill-162" fill="#2B3D4E"></path>
                    <path d="M39.2794,48.7059 C40.5394,48.7059 41.5614,49.9659 41.5614,48.7059 C41.5614,47.4459 40.5394,46.4239 39.2794,46.4239 C38.0194,46.4239 36.9974,47.4459 36.9974,48.7059 C36.9974,49.9659 38.0194,48.7059 39.2794,48.7059" id="Fill-163" fill="#2B3D4E"></path>
                    <path d="M28.8161,56.6234 C26.8331,56.6234 26.0491,54.7014 25.5281,56.3134 C25.2771,57.0874 27.3111,58.1234 29.0001,58.1234 C30.6891,58.1234 32.3501,57.0874 32.1001,56.3134 C31.5791,54.7014 30.7501,56.6234 28.8161,56.6234" id="Fill-164" fill="#F1AD89"></path>
                    <path d="M25.5585,64.8806 C26.3005,65.9116 27.4975,66.5406 28.8145,66.5406 C30.1305,66.5406 31.3275,65.9116 32.0695,64.8806 C30.4655,64.6756 27.1635,64.6756 25.5585,64.8806" id="Fill-165" fill="#FEFEFE"></path>
                    <path d="M28.8144,66.5407 C27.4984,66.5407 26.3004,65.9117 25.5584,64.8807 C27.1644,64.6757 30.4654,64.6757 32.0694,64.8807 C31.3274,65.9117 30.1304,66.5407 28.8144,66.5407 M23.6234,63.4187 C23.1894,63.7487 23.0354,64.2747 23.2284,64.7597 C24.1464,67.0567 26.3384,68.5407 28.8144,68.5407 C31.2894,68.5407 33.4814,67.0567 34.4004,64.7597 C34.5934,64.2737 34.4384,63.7477 34.0044,63.4177 C32.7904,62.4957 24.8354,62.4947 23.6234,63.4187" id="Fill-166" fill-opacity="0.507184222" fill="#F05B3D"></path>
                    <path d="M14.4558,15.3682 C18.3338,14.2922 23.0548,13.6212 28.8328,13.6212 C34.1108,13.6212 38.8558,14.2102 42.9928,15.3992 C43.2078,15.4612 43.4288,15.5162 43.6398,15.5822 C43.8628,15.2342 44.0448,14.8742 44.2058,14.5092 C44.4798,13.8872 44.6708,13.2432 44.7408,12.5782 C44.7338,12.5762 44.7268,12.5742 44.7208,12.5712 C40.0878,10.8362 34.6598,9.8372 28.8548,9.8372 C23.0498,9.8372 17.6218,10.8362 12.9888,12.5712 C12.9828,12.5742 12.9758,12.5762 12.9688,12.5782 C13.0418,13.2702 13.2398,13.9382 13.5318,14.5832 C13.6708,14.8912 13.8238,15.1942 14.0068,15.4892 C14.1518,15.4462 14.3078,15.4092 14.4558,15.3682" id="Fill-167" fill="#15212C"></path>
                    <path d="M29.6426,91.8525 C29.6426,92.4045 29.1946,92.8525 28.6426,92.8525 C28.0906,92.8525 27.6426,92.4045 27.6426,91.8525 C27.6426,91.3005 28.0906,90.8525 28.6426,90.8525 C29.1946,90.8525 29.6426,91.3005 29.6426,91.8525" id="Fill-169" fill="#FEFEFE"></path>
                    <path d="M10.0308,106.472 L10.0308,106.472 L10.7298,106.472 C10.4818,106.472 10.2648,106.458 10.0308,106.452 L10.0308,106.472 Z" id="Fill-170" fill="#D2464E"></path>
                    <path d="M13.7296,100.4724 C13.7296,99.6444 13.0586,98.9724 12.2296,98.9724 C11.4006,98.9724 10.7296,99.6444 10.7296,100.4724 L10.7296,106.4724 L10.7296,106.4724 L14.0396,106.4724 C13.8436,105.6664 13.7296,104.8374 13.7296,103.9944 L13.7296,100.4724 Z" id="Fill-171" fill="#D2464E"></path>
                    <path d="M47.5178,106.4721 L47.5178,106.4721 L47.5178,106.4491 C47.2548,106.4571 47.0058,106.4721 46.7238,106.4721 L47.5178,106.4721 Z" id="Fill-172" fill="#D2464E"></path>
                    <path d="M46.7238,100.4724 C46.7238,99.6504 46.0568,98.9834 45.2348,98.9834 C44.4118,98.9834 43.7448,99.6504 43.7448,100.4724 L43.7448,103.8884 C43.7448,104.7684 43.6228,105.6334 43.4128,106.4724 L46.7238,106.4724 L46.7238,106.4724 L46.7238,100.4724 Z" id="Fill-173" fill="#D2464E"></path>
                    <path d="M32.5789,85.3714 C31.8239,86.8824 30.9899,88.2404 30.2839,88.9614 C29.3179,89.9484 27.7419,89.9484 26.7759,88.9614 C26.0529,88.2234 25.2319,86.8154 24.5059,85.2594 C16.8599,83.5064 17.7429,77.1784 16.5129,77.7004 C8.1449,81.2464 2.4339,88.3464 2.4339,96.5284 L2.4339,98.1764 C2.4339,102.6204 2.4569,106.2384 10.0309,106.4514 C10.2639,106.4584 10.4819,106.4724 10.7299,106.4724 L10.7299,100.4724 C10.7299,99.6444 11.4009,98.9724 12.2299,98.9724 C13.0579,98.9724 13.7299,99.6444 13.7299,100.4724 L13.7299,103.9944 C13.7299,104.8374 13.8429,105.6664 14.0399,106.4724 C14.5099,108.3974 15.5099,110.1714 16.9689,111.5644 C23.5229,117.8204 33.8299,117.8454 40.4139,111.6214 C41.9009,110.2154 42.9239,108.4214 43.4129,106.4724 C43.6229,105.6334 43.7449,104.7684 43.7449,103.8884 L43.7449,100.4724 C43.7449,99.6504 44.4119,98.9834 45.2349,98.9834 C46.0569,98.9834 46.7239,99.6504 46.7239,100.4724 L46.7239,106.4724 C47.0059,106.4724 47.2549,106.4574 47.5179,106.4484 C54.8289,106.2084 54.8519,102.6774 54.8519,98.3444 L54.8519,96.5284 C54.8519,88.3794 49.1859,81.3034 40.8729,77.7434 C39.5899,77.1934 40.5639,83.7994 32.5789,85.3714 Z" id="Fill-174" fill="#F06264"></path>
                    <path d="M29.1433,101.2003 C28.0093,100.9243 26.8663,101.6193 26.5893,102.7523 C26.3133,103.8863 27.0083,105.0303 28.1423,105.3063 C29.2763,105.5833 30.4193,104.8883 30.6953,103.7543 C30.9723,102.6203 30.2773,101.4773 29.1433,101.2003" id="Fill-175" fill="#F06264"></path>
                    <path d="M24.5063,85.2595 C25.2313,86.8145 26.0533,88.2225 26.7763,88.9615 C27.7423,89.9485 29.3183,89.9485 30.2843,88.9615 C30.9903,88.2405 31.8243,86.8825 32.5793,85.3715 C40.5633,83.7995 39.5893,77.1935 40.8733,77.7435 C40.0883,77.5495 36.0543,76.2485 34.7123,75.9225 C32.7833,76.4765 30.7493,77.0785 28.6423,77.0785 C26.5363,77.0785 24.5013,76.4765 22.5733,75.9225 L22.5733,75.8875 C21.4383,76.1345 17.3313,77.4985 16.5133,77.6995 C17.7433,77.1785 16.8593,83.5065 24.5063,85.2595" id="Fill-176" fill="#F3CC9B"></path>
                    <path d="M28.6425,77.0786 C30.7485,77.0786 32.7835,76.4766 34.7115,75.9226 L34.7115,75.8576 L34.7115,72.6146 C32.6615,73.3206 30.4835,73.7066 28.2255,73.7066 C26.2715,73.7066 24.3775,73.4146 22.5735,72.8786 L22.5735,75.8576 L22.5735,75.8876 L22.5735,75.9226 C24.5015,76.4766 26.5365,77.0786 28.6425,77.0786" id="Fill-178" fill="#D7B48A"></path>
                </g>
            </g>
        </g>
    </g>
</svg>