<?xml version="1.0" encoding="UTF-8"?>
<svg width="221px" height="48px" viewBox="0 0 221 48" version="1.1" xmlns="http://www.w3.org/2000/svg" xmlns:xlink="http://www.w3.org/1999/xlink">
    <!-- Generator: Sketch 56.2 (81672) - https://sketch.com -->
    <title>hippo</title>
    <desc>Created with Sketch.</desc>
    <g id="Page-1" stroke="none" stroke-width="1" fill="none" fill-rule="evenodd">
        <g id="hippo" fill-rule="nonzero">
            <path d="M153.51,24.48 C152.322341,26.2298898 150.301149,27.2252891 148.19,27.1 C146.21508,27.1512851 144.31737,26.3322348 143,24.86 C141.66405,23.364056 140.948797,21.4149908 141,19.41 C140.959009,17.4187153 141.673589,15.4857754 143,14 C144.375364,12.4966434 146.34412,11.6769386 148.38,11.76 C150.449401,11.6728679 152.412479,12.6790879 153.55,14.41 L153.55,6 L155.78,6 L155.78,26.86 L153.55,26.86 L153.51,24.48 Z M148.51,25.07 C149.970914,25.1378192 151.379844,24.5202569 152.32,23.4 C153.232526,22.2714086 153.705042,20.8503077 153.65,19.4 C153.705042,17.9496923 153.232526,16.5285914 152.32,15.4 C151.379844,14.2797431 149.970914,13.6621808 148.51,13.73 C147.03798,13.6795352 145.621059,14.2925556 144.65,15.4 C143.695483,16.5090053 143.195404,17.9378051 143.25,19.4 C143.195404,20.8621949 143.695483,22.2909947 144.65,23.4 C145.616562,24.5019373 147.024894,25.1144152 148.49,25.07 L148.51,25.07 Z M160,12 L162.23,12 L162.23,26.9 L160,26.9 L160,12 Z M162.32,6.58 L162.32,9.5 L159.91,9.5 L159.91,6.54 L162.32,6.58 Z M178,14.34 L178,12 L180.23,12 L180.23,26.41 C180.355197,28.2337824 179.688322,30.0230485 178.4,31.32 C177.044132,32.4835378 175.294669,33.0845804 173.51,33 C171.817298,33.0944726 170.135075,32.6800119 168.68,31.81 C167.556394,31.0561945 166.723808,29.9413766 166.32,28.65 L168.79,28.65 C169.416667,30.2033333 170.863333,30.9766667 173.13,30.97 C174.48675,31.0996483 175.837627,30.6698238 176.87,29.78 C177.695653,28.8013347 178.101733,27.5363773 178,26.26 L178,24.26 C176.819477,26.0212943 174.797002,27.0287302 172.68,26.91 C170.698637,26.9778159 168.787116,26.1737347 167.45,24.71 C166.111867,23.2472794 165.394702,21.3216893 165.45,19.34 C165.397314,17.3617369 166.114302,15.4402096 167.45,13.98 C168.840243,12.4952108 170.807577,11.6885676 172.84,11.77 C174.891164,11.664959 176.848052,12.6396106 178,14.34 L178,14.34 Z M173,24.83 C173.74583,24.844281 174.485974,24.6976165 175.17,24.4 C175.785849,24.122479 176.340033,23.7246908 176.8,23.23 C177.715335,22.1257749 178.192311,20.723323 178.14,19.29 C178.193613,17.8595252 177.716337,16.4597538 176.8,15.36 C175.835408,14.2854649 174.442946,13.695501 173,13.75 C171.534978,13.6856629 170.117095,14.2755316 169.13,15.36 C168.187955,16.4480174 167.691508,17.8516399 167.74,19.29 C167.692926,20.7311619 168.189038,22.1374091 169.13,23.23 C170.123762,24.3038791 171.538034,24.8885911 173,24.83 L173,24.83 Z M184.49,12 L186.72,12 L186.72,26.9 L184.49,26.9 L184.49,12 Z M186.81,6.58 L186.81,9.5 L184.4,9.5 L184.4,6.54 L186.81,6.58 Z M192.56,26.9 L192.56,13.93 L189.56,13.93 L189.56,12 L192.56,12 L192.56,6.63 L194.79,6.63 L194.79,12 L198.21,12 L198.21,14 L194.79,14 L194.79,26.86 L192.56,26.9 Z M212.31,24.52 C211.114782,26.2515268 209.099929,27.2304952 207,27.1 C205.01099,27.1645718 203.095657,26.3442383 201.77,24.86 C200.43493,23.3635287 199.719809,21.4148242 199.77,19.41 C199.719809,17.4051758 200.43493,15.4564713 201.77,13.96 C203.143744,12.4543373 205.113625,11.6341638 207.15,11.72 C209.21852,11.636878 211.179738,12.6421445 212.32,14.37 L212.32,12 L214.55,12 L214.55,26.9 L212.32,26.9 L212.31,24.52 Z M207.31,25.11 C208.768044,25.1777713 210.173918,24.559927 211.11,23.44 C212.026114,22.3128185 212.50223,20.8915767 212.45,19.44 C212.50223,17.9884233 212.026114,16.5671815 211.11,15.44 C210.173918,14.320073 208.768044,13.7022287 207.31,13.77 C205.834526,13.7164965 204.413302,14.3297895 203.44,15.44 C202.485483,16.5490053 201.985404,17.9778051 202.04,19.44 C201.985404,20.9021949 202.485483,22.3309947 203.44,23.44 C204.416345,24.5298608 205.827898,25.1274794 207.29,25.07 L207.31,25.11 Z M221,26.86 L218.77,26.86 L218.77,6 L221,6 L221,26.86 Z" id="Shape" fill="#636363"></path>
            <path d="M66.24,6 L66.24,14.36 C66.7929305,13.6335118 67.4700323,13.0105782 68.24,12.52 C69.0342067,12.0151694 69.9590563,11.7544036 70.9,11.77 C71.775396,11.7480193 72.6471444,11.890484 73.47,12.19 C74.1851728,12.4702557 74.830287,12.9037451 75.36,13.46 C76.6239693,14.7451808 77.2944859,16.4993973 77.21,18.3 L77.21,27.05 L75,27.05 L75,18.36 C75.0629219,17.1453783 74.6422495,15.955271 73.83,15.05 C73.0484511,14.2349159 71.9587899,13.7881548 70.83,13.82 C69.6131682,13.7888223 68.4375628,14.2619781 67.5815977,15.1274118 C66.7256327,15.9928454 66.2654381,17.1735848 66.31,18.39 L66.31,27.05 L64,27.05 L64,6 L66.24,6 Z M81.3,12 L83.55,12 L83.55,27 L81.3,27 L81.3,12 Z M83.64,6.53 L83.64,9.48 L81.21,9.48 L81.21,6.54 L83.64,6.53 Z M90.05,14.41 C91.2379154,12.6359216 93.2790981,11.6267548 95.41,11.76 C97.4005918,11.6869791 99.3193669,12.5087871 100.64,14 C101.986194,15.5096875 102.702028,17.4782316 102.64,19.5 C102.702028,21.5217684 101.986194,23.4903125 100.64,25 C99.2749398,26.5200688 97.3010869,27.3492338 95.26,27.26 C93.1720295,27.3488987 91.1918842,26.3303211 90.05,24.58 L90.05,33 L87.81,33 L87.81,12 L90.05,12 L90.05,14.41 Z M95.11,13.81 C93.6413642,13.7429638 92.2253568,14.3640846 91.28,15.49 C90.3602957,16.6157682 89.8805787,18.0371519 89.93,19.49 C89.8805787,20.9428481 90.3602957,22.3642318 91.28,23.49 C92.2253568,24.6159154 93.6413642,25.2370362 95.11,25.17 C96.5804223,25.23199 98.0034742,24.6430148 99,23.56 C99.945949,22.4460663 100.444826,21.0207048 100.4,19.56 C100.444826,18.0992952 99.945949,16.6739337 99,15.56 C98.027777,14.4288093 96.6012927,13.7907417 95.11,13.82 L95.11,13.81 Z M108.19,14.41 C109.377915,12.6359216 111.419098,11.6267548 113.55,11.76 C115.541123,11.6841215 117.461069,12.5064313 118.78,14 C120.126194,15.5096875 120.842028,17.4782316 120.78,19.5 C120.842028,21.5217684 120.126194,23.4903125 118.78,25 C117.416626,26.5224369 115.441598,27.3520955 113.4,27.26 C111.31203,27.3488987 109.331884,26.3303211 108.19,24.58 L108.19,33 L106,33 L106,12 L108.24,12 L108.19,14.41 Z M113.25,13.81 C111.781653,13.7445138 110.366302,14.3653467 109.42,15.49 C108.500296,16.6157682 108.020579,18.0371519 108.07,19.49 C108.020579,20.9428481 108.500296,22.3642318 109.42,23.49 C110.366302,24.6146533 111.781653,25.2354862 113.25,25.17 C114.731585,25.2142768 116.15645,24.598911 117.14,23.49 C118.085949,22.3760663 118.584826,20.9507048 118.54,19.49 C118.584826,18.0292952 118.085949,16.6039337 117.14,15.49 C116.154581,14.3847949 114.72998,13.7732054 113.25,13.82 L113.25,13.81 Z M130.58,11.76 C132.625279,11.6894448 134.601286,12.506097 136,14 C137.348883,15.50808 138.065122,17.4777366 138,19.5 C138.065122,21.5222634 137.348883,23.49192 136,25 C134.557252,26.4466557 132.598119,27.2597077 130.555,27.2597077 C128.511881,27.2597077 126.552748,26.4466557 125.11,25 C123.758406,23.4935436 123.041758,21.5227603 123.11,19.5 C123.041758,17.4772397 123.758406,15.5064564 125.11,14 C126.519783,12.4929406 128.518379,11.6781567 130.58,11.77 L130.58,11.76 Z M130.58,25.23 C132.048347,25.2954862 133.463698,24.6746533 134.41,23.55 C135.329704,22.4242318 135.809421,21.0028481 135.76,19.55 C135.809421,18.0971519 135.329704,16.6757682 134.41,15.55 C133.423636,14.480423 132.03496,13.8720249 130.58,13.8720249 C129.12504,13.8720249 127.736364,14.480423 126.75,15.55 C125.830296,16.6757682 125.350579,18.0971519 125.4,19.55 C125.350579,21.0028481 125.830296,22.4242318 126.75,23.55 C127.694317,24.6783787 129.109966,25.3030386 130.58,25.24 L130.58,25.23 Z" id="Shape" fill="#181818"></path>
            <path d="M19.38,39.38 C19.08,39.38 18.79,39.38 18.49,39.38 C18.03,39.38 17.58,39.38 17.14,39.38 C17.1502451,43.1627781 14.4546684,46.4119908 10.7350512,47.1004408 C7.01543406,47.7888909 3.33549364,45.7196988 1.99116005,42.1838421 C0.646826459,38.6479854 2.02254535,34.6566304 5.26,32.7 C3.18671235,29.8903912 2.06551468,26.4917607 2.06,23 C1.90481783,23.0490483 1.74272682,23.0726865 1.58,23.07 C0.707390095,23.07 -7.10542736e-15,22.3626099 -7.10542736e-15,21.49 C-7.10542736e-15,20.6173901 0.707390095,19.91 1.58,19.91 C1.84172737,19.9114296 2.09916017,19.9766459 2.33,20.1 C3.27385959,14.8104752 6.74446421,10.3166772 11.6236403,8.06643626 C16.5028165,5.81619531 22.1739903,6.09387076 26.81,8.81 C27.174786,7.04490842 28.1009136,5.44523349 29.45,4.25 C28.3909631,3.91187705 27.7587462,2.82808231 27.9857043,1.73979175 C28.2126624,0.651501194 29.2253801,-0.0892498749 30.3312889,0.0241168374 C31.4371977,0.13748355 32.2785633,1.06829669 32.28,2.18 C32.290277,2.31647346 32.290277,2.45352654 32.28,2.59 C34.5102669,1.79594391 36.9714969,1.97508771 39.0632735,3.08372929 C41.15505,4.19237086 42.6850391,6.12857319 43.28,8.42 C47.1652939,6.0707918 52.1346114,6.56648365 55.4792966,9.63688579 C58.8239817,12.7072879 59.7420247,17.6161599 57.7330223,21.6877932 C55.7240199,25.7594264 51.2697033,28.0174989 46.798014,27.2311895 C42.3263247,26.44488 38.9095125,22.8027348 38.41,18.29 C37.3698437,18.7332563 36.2506635,18.9611744 35.12,18.96 L34.47,18.96 C35.7224587,23.8123067 34.6833548,28.9709786 31.65,32.96 C34.7297757,35.049209 35.9105506,39.0194074 34.4730412,42.4521001 C33.0355317,45.8847928 29.3780355,47.8288674 25.7285612,47.100067 C22.0790869,46.3712665 19.4488117,43.1715232 19.44,39.45 L19.38,39.38 Z" id="Path" fill="#000000"></path>
        </g>
    </g>
</svg>