<svg xmlns="http://www.w3.org/2000/svg" viewBox="0 0 244 72"><path d="m165.51 37.48a6 6 0 0 1 -5.32 2.62 6.73 6.73 0 0 1 -5.19-2.24 7.88 7.88 0 0 1 -2-5.45 7.88 7.88 0 0 1 2-5.41 6.91 6.91 0 0 1 5.38-2.24 5.89 5.89 0 0 1 5.17 2.65v-8.41h2.23v20.86h-2.23zm-5 .59a4.69 4.69 0 0 0 3.81-1.67 6 6 0 0 0 1.33-4 6 6 0 0 0 -1.33-4 4.69 4.69 0 0 0 -3.81-1.67 4.91 4.91 0 0 0 -3.86 1.67 5.8 5.8 0 0 0 -1.4 4 5.8 5.8 0 0 0 1.4 4 4.91 4.91 0 0 0 3.84 1.67zm11.49-13.07h2.23v14.9h-2.23zm2.32-5.42v2.92h-2.41v-2.96zm15.68 7.76v-2.34h2.23v14.41a6.35 6.35 0 0 1 -1.83 4.91 7 7 0 0 1 -4.89 1.68 8.49 8.49 0 0 1 -4.83-1.19 5.94 5.94 0 0 1 -2.36-3.16h2.47q.94 2.33 4.34 2.32a5 5 0 0 0 3.74-1.19 4.86 4.86 0 0 0 1.13-3.52v-2a6 6 0 0 1 -5.32 2.65 6.77 6.77 0 0 1 -5.23-2.2 7.64 7.64 0 0 1 -2-5.37 7.64 7.64 0 0 1 2-5.36 7 7 0 0 1 5.39-2.21 5.87 5.87 0 0 1 5.16 2.57zm-5 10.49a5.19 5.19 0 0 0 2.17-.43 5.07 5.07 0 0 0 1.63-1.17 5.84 5.84 0 0 0 1.34-3.94 5.8 5.8 0 0 0 -1.34-3.93 4.86 4.86 0 0 0 -3.8-1.61 4.94 4.94 0 0 0 -3.87 1.61 5.71 5.71 0 0 0 -1.39 3.93 5.75 5.75 0 0 0 1.39 3.94 5 5 0 0 0 3.87 1.6zm11.49-12.83h2.23v14.9h-2.23zm2.32-5.42v2.92h-2.41v-2.96zm5.75 20.32v-12.97h-3v-1.93h3v-5.37h2.23v5.37h3.42v2h-3.42v12.86zm19.75-2.38a6 6 0 0 1 -5.31 2.58 6.72 6.72 0 0 1 -5.23-2.24 7.89 7.89 0 0 1 -2-5.45 7.89 7.89 0 0 1 2-5.45 6.89 6.89 0 0 1 5.38-2.24 5.91 5.91 0 0 1 5.17 2.65v-2.37h2.23v14.9h-2.23zm-5 .59a4.67 4.67 0 0 0 3.8-1.67 6 6 0 0 0 1.34-4 6 6 0 0 0 -1.34-4 4.67 4.67 0 0 0 -3.8-1.67 4.91 4.91 0 0 0 -3.87 1.67 5.8 5.8 0 0 0 -1.4 4 5.8 5.8 0 0 0 1.4 4 4.91 4.91 0 0 0 3.85 1.63zm13.69 1.75h-2.23v-20.86h2.23z" fill="#636363"/><path d="m78.24 19v8.36a7.74 7.74 0 0 1 2-1.84 4.81 4.81 0 0 1 2.66-.75 7 7 0 0 1 2.57.42 5.26 5.26 0 0 1 1.89 1.27 6.47 6.47 0 0 1 1.85 4.84v8.75h-2.21v-8.69a4.6 4.6 0 0 0 -1.17-3.31 4 4 0 0 0 -3-1.23 4.41 4.41 0 0 0 -4.52 4.57v8.66h-2.31v-21.05zm15.06 6h2.25v15h-2.25zm2.34-5.47v2.95h-2.43v-2.94zm6.41 7.88a6 6 0 0 1 5.36-2.65 6.66 6.66 0 0 1 5.23 2.24 7.9 7.9 0 0 1 2 5.5 7.9 7.9 0 0 1 -2 5.5 6.83 6.83 0 0 1 -5.38 2.26 5.92 5.92 0 0 1 -5.21-2.68v8.42h-2.24v-21h2.24zm5.06-.6a4.72 4.72 0 0 0 -3.83 1.68 6 6 0 0 0 -1.35 4 6 6 0 0 0 1.35 4 4.72 4.72 0 0 0 3.83 1.68 5 5 0 0 0 3.89-1.61 5.9 5.9 0 0 0 1.4-4 5.9 5.9 0 0 0 -1.4-4 5 5 0 0 0 -3.89-1.74zm13.08.6a6 6 0 0 1 5.36-2.65 6.64 6.64 0 0 1 5.23 2.24 7.9 7.9 0 0 1 2 5.5 7.9 7.9 0 0 1 -2 5.5 6.81 6.81 0 0 1 -5.38 2.26 5.92 5.92 0 0 1 -5.21-2.68v8.42h-2.19v-21h2.24zm5.06-.6a4.73 4.73 0 0 0 -3.83 1.68 6 6 0 0 0 -1.35 4 6 6 0 0 0 1.35 4 4.73 4.73 0 0 0 3.83 1.68 5 5 0 0 0 3.89-1.68 5.9 5.9 0 0 0 1.4-4 5.9 5.9 0 0 0 -1.4-4 5 5 0 0 0 -3.89-1.67zm17.33-2.05a7.09 7.09 0 0 1 5.42 2.24 7.87 7.87 0 0 1 2 5.5 7.87 7.87 0 0 1 -2 5.5 7.69 7.69 0 0 1 -10.89 0 7.84 7.84 0 0 1 -2-5.5 7.84 7.84 0 0 1 2-5.5 7.06 7.06 0 0 1 5.47-2.23zm0 13.47a4.73 4.73 0 0 0 3.83-1.68 6 6 0 0 0 1.35-4 6 6 0 0 0 -1.35-4 5.21 5.21 0 0 0 -7.66 0 6 6 0 0 0 -1.35 4 6 6 0 0 0 1.35 4 4.73 4.73 0 0 0 3.83 1.69z" fill="#181818"/><path d="m31.38 52.38c-.3 0-.59 0-.89 0-.46 0-.91 0-1.35 0a7.83 7.83 0 1 1 -11.88-6.68 16.38 16.38 0 0 1 -3.2-9.7 1.51 1.51 0 0 1 -.48.07 1.58 1.58 0 0 1 0-3.16 1.61 1.61 0 0 1 .75.19 16.43 16.43 0 0 1 24.48-11.29 8.35 8.35 0 0 1 2.64-4.56 2.17 2.17 0 1 1 2.83-2.07 2.73 2.73 0 0 1 0 .41 8.44 8.44 0 0 1 11 5.83 10.22 10.22 0 1 1 -4.87 9.87 8.37 8.37 0 0 1 -3.29.67h-.65a16.37 16.37 0 0 1 -2.82 14 7.82 7.82 0 1 1 -12.21 6.49z" fill-rule="evenodd"/></svg>